<?xml version="1.0" standalone="no"?>
<!DOCTYPE svg PUBLIC "-//W3C//DTD SVG 20010904//EN"
 "http://www.w3.org/TR/2001/REC-SVG-20010904/DTD/svg10.dtd">
<svg version="1.0" xmlns="http://www.w3.org/2000/svg"
 width="601.000000pt" height="429.000000pt" viewBox="0 0 601.000000 429.000000"
 preserveAspectRatio="xMidYMid meet">

<g transform="translate(0.000000,429.000000) scale(0.100000,-0.100000)"
fill="#000000" stroke="none">
<path d="M1430 2650 c0 -5 -7 -10 -16 -10 -21 0 -64 -49 -64 -72 0 -9 -4 -20
-10 -23 -6 -4 -10 -59 -10 -131 l0 -125 -75 -72 -75 -73 75 -74 75 -74 0 -118
c0 -71 5 -128 12 -145 16 -37 72 -93 92 -93 9 0 16 -4 16 -10 0 -7 527 -10
1560 -10 1033 0 1560 3 1560 10 0 6 8 10 18 10 23 0 82 60 82 83 0 9 5 17 10
17 6 0 10 48 10 124 l0 124 70 71 c39 39 70 77 70 84 0 7 -31 44 -70 82 l-70
69 0 123 c0 70 -4 124 -10 128 -5 3 -10 14 -10 23 0 23 -43 72 -64 72 -9 0
-16 5 -16 10 0 7 -533 10 -1580 10 -1047 0 -1580 -3 -1580 -10z m198 -186 c47
-33 16 -124 -43 -124 -31 0 -75 41 -75 70 0 28 43 70 72 70 13 0 34 -7 46 -16z
m445 -25 c44 -12 101 -59 125 -103 14 -26 17 -60 17 -196 0 -189 -6 -208 -84
-267 l-43 -33 -228 0 -229 0 -10 38 c-12 40 -15 323 -5 385 l7 37 63 0 64 0 0
75 0 75 143 0 c78 0 159 -5 180 -11z m825 -71 l3 -78 -207 0 c-179 0 -210 -2
-226 -17 -15 -14 -18 -32 -18 -134 0 -152 -4 -149 172 -149 l128 0 0 45 0 45
-80 0 -80 0 0 60 0 60 160 0 160 0 0 -180 0 -180 -239 0 c-172 0 -245 4 -262
13 -48 25 -69 44 -93 88 -25 42 -26 51 -26 201 0 142 2 160 22 197 27 51 74
88 125 100 21 5 133 8 248 8 l210 -2 3 -77z m642 0 l0 -78 -189 0 c-104 0
-196 -3 -205 -6 -23 -9 -21 -61 4 -74 11 -6 78 -10 159 -9 91 0 147 -4 163
-11 114 -60 144 -204 60 -293 -52 -55 -63 -57 -302 -57 l-220 0 0 75 0 75 194
0 c190 0 195 1 210 22 13 19 14 25 2 43 -12 18 -26 20 -167 25 -172 6 -196 13
-243 74 -32 43 -44 117 -27 169 16 46 92 114 134 120 18 3 121 4 229 3 l198
-1 0 -77z m260 -130 c0 -117 4 -219 9 -227 6 -9 32 -16 70 -19 l61 -4 0 226 0
226 23 5 c13 4 46 5 73 3 l49 -3 3 -227 2 -228 70 0 70 0 2 228 3 227 57 3
c47 2 61 -1 78 -18 19 -19 20 -32 20 -230 l0 -210 -75 0 -75 0 0 -76 0 -75
-237 3 c-233 3 -239 4 -274 27 -19 14 -46 41 -60 60 -23 35 -24 42 -27 265 -2
125 -1 234 2 242 4 10 25 14 81 14 l75 0 0 -212z m684 -320 c35 -49 7 -108
-51 -108 -52 0 -82 72 -46 112 23 26 78 24 97 -4z"/>
<path d="M1760 2141 l0 -151 135 3 c93 2 138 6 147 15 15 15 19 254 5 269 -5
4 -71 9 -148 11 l-139 4 0 -151z"/>
</g>
</svg>
